# xmcd
#
# Track frame offsets: 
#        150
#        19259
#        31772
#        45760
#        68970
#        91686
#        108228
#        129872
#        149294
#
# Disc length: 2221 seconds
#
# Revision: 2
# Processed by: cddbd v1.5.2PL0 Copyright (c) Steve Scherf et al.
# Submitted via: ExactAudioCopy v0.95b4
#
DISCID=6408ab09
DTITLE=B. B. King - Blues 'n' Jazz
DYEAR=1983
DGENRE=Blues
TTITLE0=Inflation Blues
TTITLE1=Broken Heart
TTITLE2=Sell My Monkey
TTITLE3=Heed My Warning
TTITLE4=Teardrops From My Eyes
TTITLE5=Rainbow Riot
TTITLE6=Darlin' You Know I Love You
TTITLE7=Make Love To Me
TTITLE8=I Can't Let You Go
EXTD=Copyright 1983 MCA Records\nMCAD-27119
EXTT0=
EXTT1=
EXTT2=
EXTT3=
EXTT4=
EXTT5=
EXTT6=
EXTT7=
EXTT8=
PLAYORDER=
